Coordinates
version=1
nRows=8
nColumns=63
inDegrees=yes

Units are S.I. units (second, meters, Newtons, ...)
If the header above contains a line with 'inDegrees', this indicates whether rotational values are in degrees (yes) or radians (no).

endheader
time	pelvis_tilt	pelvis_list	pelvis_rotation	pelvis_tx	pelvis_ty	pelvis_tz	hip_flexion_r	hip_adduction_r	hip_rotation_r	knee_angle_r	knee_angle_r_beta	ankle_angle_r	subtalar_angle_r	mtp_angle_r	hip_flexion_l	hip_adduction_l	hip_rotation_l	knee_angle_l	knee_angle_l_beta	ankle_angle_l	subtalar_angle_l	mtp_angle_l	L5_S1_Flex_Ext	L5_S1_Lat_Bending	L5_S1_axial_rotation	L4_L5_Flex_Ext	L4_L5_Lat_Bending	L4_L5_axial_rotation	L3_L4_Flex_Ext	L3_L4_Lat_Bending	L3_L4_axial_rotation	L2_L3_Flex_Ext	L2_L3_Lat_Bending	L2_L3_axial_rotation	L1_L2_Flex_Ext	L1_L2_Lat_Bending	L1_L2_axial_rotation	L1_T12_Flex_Ext	L1_T12_Lat_Bending	L1_T12_axial_rotation	Abs_r3	Abs_r2	Abs_r1	Abs_t1	Abs_t2	neck_flexion	neck_bending	neck_rotation	arm_flex_r	arm_add_r	arm_rot_r	elbow_flex_r	pro_sup_r	wrist_flex_r	wrist_dev_r	arm_flex_l	arm_add_l	arm_rot_l	elbow_flex_l	pro_sup_l	wrist_flex_l	wrist_dev_l
1.627119	-0.432331	-5.806868	91.721529	0.208414	0.624703	0.618163	7.446474	2.759739	-3.415338	2.528373	0.044128	22.965105	-7.707269	0.000000	7.451286	-1.713766	-12.234314	4.461460	0.077867	27.043569	17.310862	0.000000	0.328078	0.651893	0.928821	0.609274	0.867018	0.986873	0.538999	1.585013	0.986873	0.374960	1.585013	0.812719	0.304653	1.329341	0.754667	0.187464	1.009783	0.696616	2.343429	7.374347	5.165826	0.000000	0.000000	26.437762	-2.317929	43.007419	2.898784	-18.852540	26.127299	59.003877	78.024630	5.794985	23.494202	40.979814	-52.487033	-45.668025	135.976169	89.698231	-39.508601	-23.252042
1.644068	-0.221720	-5.588524	91.773172	0.209290	0.625842	0.617753	7.206180	3.025942	-4.074732	2.557034	0.044629	22.779358	-7.273877	0.000000	7.282977	-2.010335	-12.197971	4.630979	0.080826	26.889563	17.212436	0.000000	0.301221	0.657523	0.840152	0.559397	0.874505	0.892662	0.494875	1.598701	0.892662	0.344265	1.598701	0.735133	0.279713	1.340820	0.682624	0.172117	1.018503	0.630114	2.151588	7.438028	4.672674	0.000000	0.000000	25.803526	-1.898686	42.554038	2.903097	-19.044018	26.744945	59.207431	78.360551	5.088852	22.918718	39.969632	-52.607882	-45.044741	135.816703	90.294283	-40.710450	-23.819508
1.661017	-0.040967	-5.397046	91.899092	0.210016	0.626912	0.617504	6.981066	3.248901	-4.768158	2.580688	0.045042	22.517545	-6.902659	0.000000	7.143361	-2.255146	-12.060168	4.762238	0.083117	26.705494	17.085184	0.000000	0.276602	0.658462	0.746218	0.513678	0.875754	0.792856	0.454430	1.600984	0.792856	0.316129	1.600984	0.652940	0.256853	1.342735	0.606302	0.158051	1.019957	0.559663	1.975743	7.448649	4.150238	0.000000	0.000000	25.110065	-1.363409	42.042961	2.878018	-19.243594	27.311830	59.414465	78.979142	4.299436	22.062143	39.102915	-52.585977	-44.432028	135.646714	90.497361	-40.409253	-24.146960
1.677966	0.099140	-5.252258	92.086418	0.210583	0.627866	0.617432	6.791260	3.417952	-5.428066	2.592638	0.045250	22.182181	-6.642057	0.000000	7.050455	-2.436197	-11.846884	4.849849	0.084646	26.487466	16.956057	0.000000	0.256489	0.654155	0.646497	0.476327	0.870026	0.686903	0.421387	1.590513	0.686903	0.293142	1.590513	0.565685	0.238176	1.333953	0.525279	0.146558	1.013286	0.484873	1.832078	7.399935	3.595623	0.000000	0.000000	24.386553	-0.743821	41.452677	2.826851	-19.436483	27.817219	59.627413	79.841374	3.480734	21.019188	38.313779	-52.445058	-43.840966	135.490321	90.293626	-38.905893	-24.301388
1.694915	0.188809	-5.162332	92.316239	0.210978	0.628668	0.617551	6.644745	3.521796	-6.045583	2.584359	0.045106	21.794886	-6.450147	0.000000	7.008278	-2.542187	-11.557638	4.887324	0.085300	26.228562	16.807593	0.000000	0.241424	0.643810	0.544897	0.448349	0.856267	0.578953	0.396636	1.565359	0.578953	0.275924	1.565359	0.476784	0.224187	1.312856	0.442728	0.137950	0.997261	0.408672	1.724471	7.282902	3.030551	0.000000	0.000000	23.674686	-0.075503	40.699262	2.734466	-19.609876	28.222509	59.853116	80.942106	2.686439	19.823657	37.584006	-52.146634	-43.358379	135.360157	89.676637	-36.056339	-24.249835
1.711864	0.231159	-5.133482	92.568814	0.211210	0.629296	0.617857	6.551314	3.566140	-6.543954	2.554753	0.044589	21.343058	-6.410561	0.000000	7.017336	-2.578213	-11.230312	4.866310	0.084933	25.925336	16.670467	0.000000	0.232485	0.627876	0.444196	0.431748	0.835075	0.471958	0.381950	1.526617	0.471958	0.265707	1.526617	0.388671	0.215886	1.280364	0.360909	0.132842	0.972579	0.333147	1.660618	7.102654	2.470483	0.000000	0.000000	23.004368	0.595882	39.684862	2.606778	-19.766475	28.562293	60.079728	82.152601	1.904341	18.542465	36.847037	-51.706168	-42.985813	135.276628	88.712334	-32.167199	-23.978677
1.728814	0.224346	-5.160766	92.825784	0.211283	0.629746	0.618342	6.504004	3.550806	-6.900425	2.491687	0.043488	20.834157	-6.527026	0.000000	7.068549	-2.543384	-10.863131	4.784747	0.083510	25.572341	16.515921	0.000000	0.228836	0.606051	0.348017	0.424972	0.806047	0.369768	0.375955	1.473552	0.369768	0.261537	1.473552	0.304515	0.212497	1.235859	0.282764	0.130757	0.938772	0.261013	1.634555	6.855766	1.935566	0.000000	0.000000	22.401935	1.240786	38.322709	2.429824	-19.886902	28.805592	60.288569	83.491942	1.161680	17.170814	36.041786	-51.108771	-42.756877	135.240651	87.480289	-27.209070	-23.463860
1.745763	0.185826	-5.232772	93.077652	0.211172	0.630037	0.619003	6.494154	3.491844	-7.107938	2.393203	0.041769	20.270091	-6.796891	0.000000	7.151629	-2.455982	-10.471128	4.646899	0.081104	25.181822	16.349811	0.000000	0.228994	0.580984	0.252753	0.425265	0.772708	0.268550	0.376214	1.412603	0.268550	0.261717	1.412603	0.221159	0.212644	1.184742	0.205362	0.130847	0.899944	0.189565	1.635682	6.572202	1.405735	0.000000	0.000000	21.878699	1.802152	36.554967	2.248942	-19.990174	29.036074	60.451202	84.898747	0.507453	15.748269	35.076503	-50.368634	-42.681367	135.243689	86.110468	-21.322197	-22.681908
